<svg xmlns="http://www.w3.org/2000/svg" version="1.1" xml:space="preserve" height="318.2" viewBox="0 0 512 318.2" width="512" enable-background="new 0 0 512 512"><g transform="translate(-.864 -98.198)"><path fill="#e30613" d="m482.7 103.2c13.9 0 25.1 11.3 25.1 25.1v257.9c0 13.9-11.3 25.1-25.1 25.1h-451.7c-13.9 0-25.1-11.3-25.1-25.1v-257.9c0-13.9 11.3-25.1 25.1-25.1h451.7m0-5h-451.7c-16.6 0-30.1 13.5-30.1 30.1v257.9c0 16.6 13.5 30.1 30.1 30.1h451.7c16.6 0 30.1-13.5 30.1-30.1v-257.9c0-16.6-13.5-30.1-30.1-30.1z"/><g clip-rule="evenodd" fill-rule="evenodd"><path d="m257.6 355.2c22.6 20.9 53.1 33.5 86.1 33.5 71 0 128.5-57.9 128.5-129.2 0-71.5-57.5-129.4-128.5-129.4-33.1 0-63.5 12.7-86.1 33.5-26 23.8-42.4 57.9-42.4 95.9 0 38 16.4 72.2 42.4 95.7zM299.1 245.7 299.1 245.7 299.1 245.7" fill="#fab31e"/><path d="m299.1 245.7c-0.4-4.7-1.3-9.1-2.2-13.8h-78.6c0.9-4.7 2.2-9.1 3.5-13.5h71.3c-1.6-4.7-3.3-9.3-5.3-13.8h-60.4c2.2-4.7 4.7-9.3 7.3-13.8h45.5c-2.9-4.7-6.2-9.3-9.8-13.5h-26c4-4.9 8.4-9.5 13.1-13.8-22.9-20.6-53.1-33.5-86.4-33.5-70.8 0-128.5 57.9-128.5 129.4 0 71.3 57.7 129.2 128.5 129.2 33.3 0 63.5-12.7 86.4-33.5 4.7-4.2 8.9-8.7 12.9-13.5h-26c-3.6-4.4-6.7-8.9-9.8-13.8h45.5c2.9-4.4 5.3-8.9 7.5-13.8h-60.4c-2-4.4-4-8.9-5.6-13.5h71.3c1.6-4.4 2.7-9.1 3.8-13.8 0.9-4.4 1.8-9.1 2.2-13.8 0.4-4.4 0.7-8.9 0.7-13.5 0-4.7-0.2-9.3-0.7-13.8z" fill="#e40520"/><path d="m455.2 289.5c0-2.4 1.8-4.2 4-4.2 2.4 0 4.2 1.8 4.2 4.2 0 2.2-1.8 4.2-4.2 4.2-2.2 0-4-2-4-4.2zm4 3.1c1.8 0 3.3-1.3 3.3-3.1 0-1.8-1.6-3.1-3.3-3.1-1.6 0-3.1 1.3-3.1 3.1 0 1.8 1.6 3.1 3.1 3.1zm-0.4-1.3h-0.9v-3.6h1.6 0.9c0.4 0.2 0.4 0.7 0.4 1.1 0 0.2-0.2 0.7-0.7 0.9l0.9 1.6h-1.1l-0.4-1.3h-0.7v1.3-2h0.4c0.2 0 0.4 0 0.4-0.2 0.2 0 0.2-0.2 0.2-0.4 0 0 0-0.2-0.2-0.2 0-0.2-0.2 0-0.4 0h-0.4v0.9 2h0z" fill="#fff"/><g fill="#06326e"><path d="m213.8 296.8c-4.2 1.1-7.3 1.8-10.4 1.8-6.7 0-10.7-4.2-10.7-11.8 0-1.6 0.2-3.1 0.4-4.9l0.9-5.1 0.7-4.2 6-36.4h13.3l-1.6 8h8.4l-2 13.3h-8.4l-3.6 21.8c-0.2 1.1-0.2 1.8-0.2 2.2 0 2.9 1.3 4 4.7 4 1.6 0 2.9-0.2 4.2-0.4l-1.8 11.8zM256.9 296.3 256.9 296.3 256.9 296.3"/><path d="m256.9 296.3c-4.9 1.3-9.3 2-14.2 2-15.1 0-23.8-8-23.8-23.8 0-18.4 10.2-31.7 24.4-31.7 11.3 0 18.6 7.6 18.6 19.3 0 4-0.4 7.8-1.6 13.1h-27.8c-0.2 0.9-0.2 1.3-0.2 1.8 0 6.2 4.2 9.3 12.2 9.3 5.1 0 9.5-1.1 14.4-3.3l-2.2 13.3zm-8.2-31.7v-2.7c0-4.4-2.4-6.9-6.7-6.9-4.4 0-7.5 3.3-8.9 9.5h15.5z"/><polygon points="83.5 297.5 74 297.5 72.9 247.3 64.4 297.5 50.9 297.5 61.8 232 82 232 82.4 272.4 96 232 118.2 232 107.3 297.5 107.3 297.5 93.5 297.5 101.5 247.1"/><path d="m140.8 273.7c-1.3-0.2-1.8-0.2-2.7-0.2-8 0-12 3.1-12 8 0 3.3 2 5.6 5.1 5.6 6.7 0 9.3-5.6 9.5-13.3zm11.1 23.8h-12l0.2-5.5c-3.1 4.2-7.3 6.4-14.7 6.4-6.7 0-12.4-6-12.4-14.7 0-2.4 0.4-4.7 1.1-6.9 2.2-8.2 10.4-13.3 23.1-13.5 1.6 0 4 0 6.2 0.2 0.4-1.8 0.4-2.4 0.4-3.6 0-3.6-2.9-4.7-9.3-4.7-4 0-8.4 0.7-11.5 1.8l-2 0.4-0.9 0.2 2-12c6.4-2 11.1-2.9 16.2-2.9 12 0 18.4 5.6 18.4 15.8 0 2.7 0.2 4.7-0.7 10.4l-3.1 19.1-0.4 3.3-0.2 2.7-0.2 1.8-0.2 1.6zM324 244.6 324 244.6 324 244.6"/><path d="m324 244.6c4 0 7.5 1.1 12.4 3.6l2.4-14.2c-1.3-0.7-1.8-0.7-3.6-1.3l-5.6-1.6c-1.8-0.4-4-0.7-6.4-0.7-6.9 0-10.9 0.2-15.1 2.7-2.2 1.6-5.1 3.6-8.2 7.1l-1.8-0.4-14.2 10 0.7-5.5h-14.7l-8.7 53.3h14l5.1-28.6s2-4 2.9-5.3c2.7-3.3 4.9-3.3 7.8-3.3h1.1c-0.4 3.1-0.7 6.4-0.7 10.2 0 17.3 9.8 28.2 24.9 28.2 3.8 0 7.1-0.4 12.2-1.8l2.4-15.1c-4.4 2.4-8.4 3.6-11.8 3.6-8.2 0-13.1-6.2-13.1-16 0-14.4 7.3-24.6 17.8-24.6z"/><path d="m441.8 232-3.1 18.6c-3.3-5.1-7.3-7.5-12.7-7.5-7.3 0-14.2 4.2-18.4 12.2v-0.2l-8.9-5.3 0.9-5.5h-14.9l-8.4 53.3h13.8l4.7-28.6s3.6-4 4.4-5.3c2.2-2.7 4.4-3.1 6.2-3.3-1.6 4.4-2.4 9.8-2.4 15.8 0 13.3 6.9 22.2 17.1 22.2 5.1 0 9.1-1.8 12.9-6l-0.7 5.3h13.1l10.7-65.5h-14.2v0zm-17.1 52.8c-4.7 0-7.1-3.6-7.1-10.4 0-10.4 4.4-18 10.9-18 4.9 0 7.3 3.8 7.3 10.4 0 10.7-4.4 18-11.1 18z"/><path d="m360.6 273.7c-1.3-0.2-1.8-0.2-2.7-0.2-8 0-12 3.1-12 8 0 3.3 2 5.6 5.1 5.6 6.7 0 9.3-5.6 9.5-13.3zm11.1 23.8h-12.2l0.4-5.5c-3.1 4.2-7.3 6.4-14.7 6.4-6.9 0-12.9-5.8-12.9-14.7 0-12.7 9.5-20.4 24.6-20.4 1.6 0 4 0 6 0.2 0.4-1.8 0.7-2.4 0.7-3.6 0-3.6-2.9-4.7-9.5-4.7-3.8 0-8.4 0.7-11.5 1.8l-1.8 0.4-0.9 0.2 2-12c6.4-2 11.1-2.9 16.2-2.9 12 0 18.2 5.6 18.2 15.8 0 2.7 0.4 4.7-0.7 10.4l-2.9 19.1-0.4 3.3-0.4 2.7-0.2 1.8v1.6z"/><path d="m181 255.5c2.7 0 6.4 0.2 10.4 0.9l2-12.4c-4-0.4-9.3-1.1-12.4-1.1-15.5 0-20.6 8.4-20.6 18.2 0 6.4 2.9 11.1 10.4 14.7 5.5 2.7 6.4 3.1 6.4 5.6 0 3.3-2.9 5.3-8.2 5.3-4.2 0-8.2-0.7-12.7-2.2l-1.6 12.2 0.2 0.2 2.7 0.4c0.9 0.2 2 0.4 3.6 0.7 3.3 0.2 6.2 0.4 8 0.4 15.5 0 22-6 22-17.8 0-7.3-3.6-11.8-10.4-14.9-6-2.7-6.7-3.1-6.7-5.5 0-2.4 2.7-4.7 6.9-4.7z"/></g><g fill="#fff"><path d="m342.6 229.7-2.4 14.2c-4.9-2.4-8.4-3.6-12.4-3.6-10.4 0-17.8 10.2-17.8 24.6 0 10 4.9 16 13.1 16 3.3 0 7.3-1.1 11.8-3.3l-2.4 14.9c-5.1 1.3-8.4 2-12.2 2-15.1 0-24.4-10.9-24.4-28.4 0-23.3 12.9-39.7 31.3-39.7 2.4 0 4.7 0.2 6.4 0.7l5.5 1.3c1.8 0.7 2.2 0.9 3.6 1.3zM297.8 239.5 297.8 239.5 297.8 239.5"/><path d="m297.8 239.5h-1.3c-4.7 0-7.3 2.2-11.5 8.7l1.3-8.2h-12.7l-8.7 53.3h14c5.1-32.6 6.4-38.2 13.1-38.2h0.9c1.3-6.4 3.1-11.1 5.3-15.3l-0.4-0.2z"/><path d="m217.4 292.6c-3.8 1.3-6.9 1.8-10 1.8-7.1 0-11.1-4-11.1-11.8 0-1.3 0.2-3.1 0.4-4.7l0.9-5.3 0.7-4.2 6-36.4h13.8l-1.6 8h7.1l-1.8 13.1h-7.1l-3.8 22.2c-0.2 0.9-0.2 1.6-0.2 2.2 0 2.7 1.3 3.8 4.7 3.8 1.6 0 2.9 0 3.8-0.4l-1.8 11.8z"/><path d="m163.9 256.8c0 6.7 3.1 11.3 10.4 14.9 5.8 2.7 6.7 3.6 6.7 5.8 0 3.3-2.4 4.9-8 4.9-4.2 0-8-0.7-12.4-2l-2 12.2 0.7 0.2 2.4 0.4c0.9 0.2 2 0.4 3.8 0.4 3.1 0.4 5.8 0.4 7.5 0.4 14.7 0 21.5-5.6 21.5-17.8 0-7.3-2.9-11.5-9.8-14.9-6-2.7-6.7-3.3-6.7-5.8 0-2.9 2.4-4.2 6.9-4.2 2.7 0 6.4 0.2 10 0.7l2-12.2c-3.6-0.7-9.1-1.1-12.2-1.1-15.5 0-21.1 8.2-20.9 18z"/><path d="m448.9 293.2h-13.1l0.7-5.1c-3.8 4-7.8 5.8-12.9 5.8-10.2 0-16.9-8.7-16.9-22 0-17.8 10.4-32.9 22.6-32.9 5.6 0 9.5 2.4 13.3 7.3l3.1-18.7h13.8l-10.7 65.5zm-20.4-12.4c6.4 0 10.9-7.6 10.9-18 0-6.9-2.4-10.4-7.3-10.4-6.2 0-10.9 7.3-10.9 17.8 0 7.1 2.4 10.7 7.3 10.7z"/><path d="m260 292.1c-4.9 1.6-9.3 2.2-14.4 2.2-15.5 0-23.5-8.2-23.5-24 0-18.2 10.2-31.7 24.2-31.7 11.5 0 18.9 7.5 18.9 19.3 0 4-0.4 7.8-1.8 13.3h-27.5c-0.2 0.7-0.2 1.1-0.2 1.6 0 6.2 4.2 9.3 12.2 9.3 5.1 0 9.5-0.9 14.4-3.3l-2.2 13.3zm-7.8-31.7v-2.7c0-4.4-2.4-6.9-6.7-6.9-4.4 0-7.5 3.3-8.9 9.5h15.5z"/><polygon points="87.1 293.2 77.5 293.2 76.4 243.3 68 293.2 55.1 293.2 66 227.7 86 227.7 86.6 268.4 99.9 227.7 121.7 227.7 110.8 293.2 110.8 293.2 97.1 293.2 105.1 242.8"/><path d="m145.2 269.5c-1.3 0-2-0.2-3.1-0.2-7.8 0-11.8 2.9-11.8 8.2 0 3.3 1.8 5.3 4.9 5.3 5.8 0 9.8-5.3 10-13.3zm10.2 23.8h-11.5l0.2-5.6c-3.6 4.4-8.2 6.4-14.7 6.4-7.5 0-12.7-5.8-12.7-14.4 0-13.1 8.9-20.6 24.4-20.6 1.6 0 3.6 0.2 5.8 0.4 0.4-1.8 0.4-2.4 0.4-3.3 0-3.6-2.4-4.9-8.9-4.9-4 0-8.4 0.4-11.5 1.3l-2 0.7-1.3 0.2 2-12c6.9-2 11.5-2.7 16.7-2.7 12 0 18.4 5.3 18.4 15.5 0 2.7-0.2 4.7-1.1 10.7l-3.1 18.9-0.4 3.3-0.2 2.7-0.2 2-0.2 1.3zM365 269.5 365 269.5 365 269.5"/><path d="m365 269.5c-1.6 0-2.2-0.2-3.1-0.2-8 0-12 2.9-12 8.2 0 3.3 2 5.3 5.1 5.3 5.5 0 9.8-5.3 10-13.3zm10.2 23.8h-11.5l0.2-5.6c-3.6 4.4-8.2 6.4-14.6 6.4-7.5 0-12.7-5.8-12.7-14.4 0-13.1 8.9-20.6 24.4-20.6 1.6 0 3.6 0.2 5.6 0.4 0.4-1.8 0.7-2.4 0.7-3.3 0-3.6-2.4-4.9-8.9-4.9-4 0-8.7 0.4-11.8 1.3l-1.8 0.7-1.3 0.2 2-12c6.9-2 11.5-2.7 16.6-2.7 12 0 18.2 5.3 18.2 15.5 0 2.7 0 4.7-1.1 10.7l-2.9 18.9-0.4 3.3-0.4 2.7-0.2 2v1.3h0z"/><path d="m412.5 239.5h-1.3c-4.7 0-7.3 2.2-11.5 8.7l1.3-8.2h-12.7l-8.4 53.3h13.8c5.1-32.6 6.4-38.2 13.1-38.2h0.9c1.3-6.4 3.1-11.1 5.3-15.3l-0.4-0.2z"/></g></g></g></svg>