<svg xmlns="http://www.w3.org/2000/svg" version="1.1" xml:space="preserve" height="318.2" viewBox="0 0 512 318.2" width="512" enable-background="new 0 0 512 512"><g transform="translate(-.864 -98.198)"><path fill="#005098" d="m482.7 103.2c13.9 0 25.1 11.3 25.1 25.1v257.9c0 13.9-11.3 25.1-25.1 25.1h-451.7c-13.9 0-25.1-11.3-25.1-25.1v-257.9c0-13.9 11.3-25.1 25.1-25.1h451.7m0-5h-451.7c-16.6 0-30.1 13.5-30.1 30.1v257.9c0 16.6 13.5 30.1 30.1 30.1h451.7c16.6 0 30.1-13.5 30.1-30.1v-257.9c0-16.6-13.5-30.1-30.1-30.1z"/><g fill="#005098"><polygon points="225.5 321.1 190.9 321.1 190.9 321.1 212.5 194 247.2 194"/><path d="m351.1 197.2c-6.9-2.6-17.6-5.3-31-5.3-34.2 0-58.3 17.2-58.5 41.9-0.2 18.3 17.2 28.5 30.4 34.5 13.5 6.2 18 10.2 18 15.8-0.1 8.5-10.8 12.4-20.7 12.4-13.9 0-21.2-1.9-32.6-6.7l-4.5-2-4.9 28.5c8.1 3.5 23 6.6 38.6 6.8 36.4 0 60-17 60.3-43.4 0.1-14.4-9.1-25.4-29.1-34.5-12.1-5.9-19.5-9.8-19.5-15.8 0-5.3 6.3-10.9 19.8-10.9 11.3-0.2 19.5 2.3 25.9 4.9l3.1 1.5 4.7-27.5zM440 194.1h-26.8c-8.3 0-14.5 2.3-18.1 10.5l-51.4 116.5h36.4s5.9-15.7 7.3-19.1c4 0 39.3 0.1 44.4 0.1 1 4.4 4.2 19 4.2 19h32.2l-28-127zm-42.7 81.9c2.9-7.3 13.8-35.5 13.8-35.5-0.2 0.3 2.8-7.4 4.6-12.1l2.3 11s6.6 30.3 8 36.7h-28.8zM161.8 194.1l-33.9 86.7-3.6-17.6c-6.3-20.3-26-42.3-48-53.3l31 111.2 36.6 0 54.5-126.8h-36.7z"/></g><path fill="#f6a500" d="m96.5 194h-55.9l-0.4 2.6c43.5 10.5 72.2 35.9 84.1 66.5l-12.1-58.4c-2.1-8-8.2-10.4-15.7-10.7z"/></g></svg>